<?xml version="1.0" standalone="no"?><!DOCTYPE svg PUBLIC "-//W3C//DTD SVG 1.1//EN" "http://www.w3.org/Graphics/SVG/1.1/DTD/svg11.dtd"><svg class="icon" width="200px" height="200.00px" viewBox="0 0 1024 1024" version="1.1" xmlns="http://www.w3.org/2000/svg"><path fill="#959099" d="M886.4 147.2H158.4c-67.2 0-121.6 54.4-121.6 121.6v484.8c0 67.2 54.4 121.6 121.6 121.6h728c67.2 0 121.6-54.4 121.6-121.6V268.8c0-67.2-54.4-121.6-121.6-121.6z m0 680H158.4c-36.8 0-67.2-28.8-72-65.6L384 552l83.2 62.4c16 12.8 35.2 19.2 54.4 19.2 19.2 0 38.4-6.4 56-19.2l83.2-62.4L960 763.2c-6.4 36.8-36.8 64-73.6 64zM547.2 576c-16 11.2-35.2 11.2-51.2 0L86.4 260.8c4.8-36.8 35.2-65.6 72-65.6h728c36.8 0 67.2 28.8 72 65.6L547.2 576zM84.8 321.6l259.2 198.4L84.8 704V321.6zM960 704L700.8 520 960 321.6V704z"  /></svg>